<svg width="1225" height="322" viewBox="0 0 1225 322" fill="none" xmlns="http://www.w3.org/2000/svg">
<path d="M343.541 161L334.953 165L331.416 170H185.411L178.844 175V182L185.411 187H332.427L343.541 191.5L353.14 192L360.213 185.5L362.234 180V171.5L357.182 164L343.541 161Z" fill="#06B6D4"/>
<path d="M140.212 89.432C134.67 89.924 124.249 92.224 117.541 94.845C114.075 96.2 111.626 97.388 107.969 99.275C101.163 102.785 95.877 106.165 91.847 109.61C88.39 112.564 83.52 117.272 78.748 123.39C70.687 133.725 68.435 140.588 67.665 142.092C65.649 146.029 62.268 156.651 61.115 166.699C60.326 173.575 60.611 178.019 61.115 184.417C61.701 191.858 62.8 196.016 65.146 203.119C67.526 210.324 69.298 214.298 73.207 220.836C74.972 223.789 79.356 230.319 84.29 235.601C89.224 240.882 99.404 249.084 108.976 253.81C115.953 257.255 125.098 260.268 133.158 261.685C139.204 262.747 148.206 263.277 157.625 262.5C163.556 262.011 168.25 260.752 174.802 259C179.19 257.826 185.46 254.938 191.474 252C197.031 249 202.565 244.419 208.146 240C208.146 240 214.713 234 219.765 227C223.735 221.5 224.167 220.391 226.838 215.5C229.831 210.021 231.148 205.657 232.396 202C232.597 201.41 232.902 199.969 233.406 198C208.72 198 207.072 198 184.401 198C180.864 198 175.913 195.785 174.802 195C171.265 192.5 168.739 190 166.718 184.5C165.203 179.5 165.708 175 167.224 171C168.179 168.479 169.495 166.752 170.76 165.5C175.307 161 178.843 159.5 184.906 159C204.05 159 218.295 159 234.416 159C232.905 152.11 230.126 141.5 223.302 130.5C222.08 128.531 218.25 122.144 212.187 116C207.048 110.791 200.931 105.882 198.041 104C195.019 102.031 193.377 101.082 190.463 99.5C185.929 97.039 185.819 97.221 181.875 95.5C179.356 94.401 173.79 92.646 173.286 92.5C167.292 90.761 162.931 90.056 158.13 89.5C151.581 88.742 144.257 89.072 140.212 89.432Z" fill="#FD8B30"/>
<path d="M229.87 61L227.344 64L224.817 71.5L224.312 77.5L234.416 82L267.76 115H378.906V112V105V98H274.833L245.531 69L238.963 66.5L236.437 61H229.87Z" fill="#06B6D4"/>
<path d="M172.781 0L139.437 32H79.823L0 107.752V225.142L97 320H213.198L286.958 247L273.823 236L206.125 303H104.073L17.177 218V115L86.896 49H146.51L179.854 17H351.625V0H172.781Z" fill="#06B6D4"/>
<path d="M364.76 177.5C364.76 187.165 356.844 195 347.078 195C337.312 195 329.396 187.165 329.396 177.5C329.396 167.835 337.312 160 347.078 160C356.844 160 364.76 167.835 364.76 177.5Z" fill="#06B6D4"/>
<path d="M250.583 66.5C250.583 76.165 242.666 84 232.901 84C223.135 84 215.219 76.165 215.219 66.5C215.219 56.835 223.135 49 232.901 49C242.666 49 250.583 56.835 250.583 66.5Z" fill="#06B6D4"/>
<path d="M185.411 187C190.154 187 194 183.194 194 178.5C194 173.806 190.154 170 185.411 170C180.668 170 176.822 173.806 176.822 178.5C176.822 183.194 180.668 187 185.411 187Z" fill="#06B6D4"/>
<path d="M351.12 17C355.863 17 359.709 13.1944 359.709 8.5C359.709 3.80558 355.863 0 351.12 0C346.377 0 342.531 3.80558 342.531 8.5C342.531 13.1944 346.377 17 351.12 17Z" fill="#06B6D4"/>
<path d="M280.39 250C285.133 250 288.979 246.194 288.979 241.5C288.979 236.806 285.133 233 280.39 233C275.647 233 271.801 236.806 271.801 241.5C271.801 246.194 275.647 250 280.39 250Z" fill="#06B6D4"/>
<path d="M379.411 115C384.154 115 388 111.194 388 106.5C388 101.806 384.154 98 379.411 98C374.668 98 370.822 101.806 370.822 106.5C370.822 111.194 374.668 115 379.411 115Z" fill="#06B6D4"/>
<path d="M526.865 36.352C526.301 31.079 523.927 26.974 519.741 24.036C515.596 21.098 510.203 19.629 503.562 19.629C498.894 19.629 494.889 20.334 491.549 21.742C488.208 23.151 485.653 25.062 483.882 27.477C482.111 29.892 481.205 32.649 481.165 35.748C481.165 38.324 481.749 40.557 482.916 42.449C484.123 44.34 485.753 45.95 487.806 47.278C489.858 48.566 492.132 49.653 494.627 50.538C497.123 51.424 499.638 52.168 502.174 52.772L513.765 55.67C518.433 56.756 522.921 58.225 527.227 60.077C531.573 61.928 535.457 64.262 538.878 67.08C542.339 69.897 545.076 73.298 547.088 77.282C549.101 81.266 550.107 85.935 550.107 91.288C550.107 98.532 548.256 104.911 544.553 110.425C540.85 115.898 535.497 120.184 528.495 123.283C521.532 126.342 513.1 127.871 503.2 127.871C493.581 127.871 485.23 126.382 478.147 123.404C471.104 120.426 465.59 116.079 461.605 110.364C457.661 104.649 455.528 97.687 455.206 89.477H477.241C477.563 93.783 478.891 97.365 481.225 100.222C483.56 103.08 486.598 105.213 490.341 106.621C494.124 108.03 498.35 108.734 503.019 108.734C507.889 108.734 512.155 108.01 515.817 106.561C519.52 105.072 522.417 103.019 524.51 100.403C526.603 97.747 527.67 94.648 527.71 91.107C527.67 87.887 526.724 85.231 524.872 83.138C523.021 81.005 520.425 79.234 517.085 77.825C513.785 76.376 509.921 75.089 505.494 73.962L491.428 70.339C481.246 67.723 473.196 63.759 467.28 58.447C461.404 53.094 458.466 45.991 458.466 37.136C458.466 29.852 460.438 23.473 464.382 17.999C468.367 12.526 473.78 8.27996 480.622 5.26096C487.464 2.20296 495.211 0.672974 503.864 0.672974C512.638 0.672974 520.325 2.20296 526.925 5.26096C533.566 8.27996 538.778 12.486 542.561 17.879C546.344 23.231 548.296 29.389 548.417 36.352H526.865ZM648.011 2.36398H670.408V83.138C670.408 91.992 668.315 99.78 664.129 106.501C659.984 113.222 654.148 118.474 646.622 122.257C639.096 126 630.302 127.871 620.241 127.871C610.139 127.871 601.325 126 593.799 122.257C586.273 118.474 580.437 113.222 576.292 106.501C572.147 99.78 570.074 91.992 570.074 83.138V2.36398H592.471V81.266C592.471 86.418 593.598 91.006 595.852 95.031C598.146 99.055 601.365 102.214 605.511 104.509C609.656 106.762 614.566 107.889 620.241 107.889C625.916 107.889 630.826 106.762 634.971 104.509C639.157 102.214 642.376 99.055 644.63 95.031C646.884 91.006 648.011 86.418 648.011 81.266V2.36398ZM796.349 2.36398V126H776.429L718.175 41.785H717.149V126H694.752V2.36398H714.794L772.989 86.639H774.079V2.36398H796.349Z" fill="white"/>
<path d="M454.674 320V196.364H501.037C510.535 196.364 518.504 198.134 524.943 201.676C531.423 205.218 536.313 210.088 539.613 216.286C542.954 222.443 544.624 229.446 544.624 237.294C544.624 245.223 542.954 252.266 539.613 258.423C536.273 264.581 531.343 269.431 524.823 272.972C518.303 276.474 510.274 278.224 500.735 278.224H470.007V259.812H497.717C503.271 259.812 507.819 258.846 511.36 256.914C514.902 254.982 517.518 252.326 519.208 248.945C520.939 245.565 521.804 241.681 521.804 237.294C521.804 232.907 520.939 229.044 519.208 225.703C517.518 222.363 514.882 219.767 511.3 217.915C507.758 216.024 503.19 215.078 497.596 215.078H477.071V320H454.674ZM564.078 320V196.364H610.442C619.94 196.364 627.908 198.014 634.348 201.314C640.827 204.614 645.717 209.242 649.018 215.199C652.358 221.115 654.028 228.017 654.028 235.906C654.028 243.834 652.338 250.716 648.957 256.552C645.617 262.347 640.687 266.835 634.167 270.014C627.647 273.153 619.638 274.723 610.14 274.723H577.118V256.129H607.121C612.675 256.129 617.223 255.365 620.765 253.835C624.306 252.266 626.922 249.992 628.613 247.013C630.343 243.995 631.209 240.292 631.209 235.906C631.209 231.519 630.343 227.776 628.613 224.677C626.882 221.538 624.246 219.163 620.704 217.553C617.163 215.903 612.595 215.078 607 215.078H586.475V320H564.078ZM627.949 263.977L658.556 320H633.563L603.499 263.977H627.949ZM785.119 258.182C785.119 271.503 782.629 282.913 777.639 292.411C772.689 301.869 765.919 309.113 757.349 314.144C748.818 319.175 739.139 321.69 728.313 321.69C717.486 321.69 707.787 319.175 699.215 314.144C690.682 309.073 683.921 301.809 678.931 292.351C673.98 282.853 671.505 271.463 671.505 258.182C671.505 244.86 673.98 233.471 678.931 224.013C683.921 214.515 690.682 207.25 699.215 202.219C707.787 197.189 717.486 194.673 728.313 194.673C739.139 194.673 748.818 197.189 757.349 202.219C765.919 207.25 772.689 214.515 777.639 224.013C782.629 233.471 785.119 244.86 785.119 258.182ZM762.599 258.182C762.599 248.804 761.129 240.896 758.199 234.457C755.298 227.977 751.273 223.087 746.122 219.787C740.97 216.446 735.034 214.776 728.313 214.776C721.592 214.776 715.655 216.446 710.504 219.787C705.352 223.087 701.307 227.977 698.369 234.457C695.472 240.896 694.023 248.804 694.023 258.182C694.023 267.559 695.472 275.488 698.369 281.967C701.307 288.407 705.352 293.297 710.504 296.637C715.655 299.937 721.592 301.587 728.313 301.587C735.034 301.587 740.97 299.937 746.122 296.637C751.273 293.297 755.298 288.407 758.199 281.967C761.129 275.488 762.599 267.559 762.599 258.182ZM855.069 196.364H877.289V283.295C877.249 291.264 875.559 298.126 872.219 303.881C868.879 309.596 864.209 314.003 858.209 317.102C852.259 320.161 845.309 321.69 837.389 321.69C830.139 321.69 823.619 320.402 817.829 317.827C812.069 315.211 807.499 311.347 804.119 306.236C800.739 301.125 799.049 294.766 799.049 287.159H821.329C821.369 290.5 822.089 293.377 823.499 295.792C824.949 298.207 826.939 300.058 829.479 301.346C832.009 302.634 834.929 303.278 838.229 303.278C841.809 303.278 844.849 302.533 847.349 301.044C849.839 299.515 851.729 297.261 853.019 294.283C854.349 291.304 855.029 287.642 855.069 283.295V196.364ZM901.589 320V196.364H981.999V215.138H923.989V248.704H977.839V267.479H923.989V301.225H982.479V320H901.589ZM1110.68 238.079H1088.1C1087.46 234.376 1086.27 231.096 1084.54 228.239C1082.81 225.341 1080.65 222.886 1078.08 220.874C1075.5 218.861 1072.56 217.352 1069.26 216.346C1066 215.299 1062.48 214.776 1058.7 214.776C1051.98 214.776 1046.02 216.467 1040.83 219.847C1035.64 223.188 1031.57 228.098 1028.64 234.577C1025.7 241.017 1024.23 248.885 1024.23 258.182C1024.23 267.64 1025.7 275.608 1028.64 282.088C1031.61 288.527 1035.68 293.397 1040.83 296.697C1046.02 299.957 1051.96 301.587 1058.64 301.587C1062.34 301.587 1065.8 301.104 1069.02 300.138C1072.28 299.132 1075.2 297.663 1077.78 295.732C1080.39 293.8 1082.59 291.425 1084.36 288.608C1086.17 285.791 1087.42 282.571 1088.1 278.949L1110.68 279.07C1109.83 284.946 1108 290.459 1105.18 295.611C1102.41 300.762 1098.76 305.31 1094.26 309.254C1089.75 313.158 1084.48 316.217 1078.44 318.43C1072.4 320.604 1065.7 321.69 1058.34 321.69C1047.47 321.69 1037.77 319.175 1029.24 314.144C1020.71 309.113 1013.99 301.849 1009.08 292.351C1004.17 282.853 1001.71 271.463 1001.71 258.182C1001.71 244.86 1004.19 233.471 1009.14 224.013C1014.09 214.515 1020.83 207.25 1029.36 202.219C1037.89 197.189 1047.55 194.673 1058.34 194.673C1065.22 194.673 1071.62 195.639 1077.54 197.571C1083.45 199.503 1088.72 202.34 1093.35 206.083C1097.98 209.786 1101.78 214.334 1104.76 219.727C1107.78 225.079 1109.75 231.197 1110.68 238.079ZM1125.76 215.138V196.364H1224.4V215.138H1186.18V320H1163.97V215.138H1125.76Z" fill="white"/>
</svg>
