<svg width="40" height="40" viewBox="0 0 40 40" fill="none" xmlns="http://www.w3.org/2000/svg">
<path d="M35.5555 32.2222H4.44444C4.14975 32.2222 3.86714 32.1052 3.65877 31.8968C3.45039 31.6884 3.33333 31.4058 3.33333 31.1111C3.33333 30.8164 3.45039 30.5338 3.65877 30.3254C3.86714 30.1171 4.14975 30 4.44444 30H35.5555C35.8502 30 36.1328 30.1171 36.3412 30.3254C36.5496 30.5338 36.6667 30.8164 36.6667 31.1111C36.6667 31.4058 36.5496 31.6884 36.3412 31.8968C36.1328 32.1052 35.8502 32.2222 35.5555 32.2222Z" fill="white"/>
<path d="M35.5555 21.1111H4.44444C4.14975 21.1111 3.86714 20.994 3.65877 20.7857C3.45039 20.5773 3.33333 20.2947 3.33333 20C3.33333 19.7053 3.45039 19.4227 3.65877 19.2143C3.86714 19.0059 4.14975 18.8889 4.44444 18.8889H35.5555C35.8502 18.8889 36.1328 19.0059 36.3412 19.2143C36.5496 19.4227 36.6667 19.7053 36.6667 20C36.6667 20.2947 36.5496 20.5773 36.3412 20.7857C36.1328 20.994 35.8502 21.1111 35.5555 21.1111Z" fill="white"/>
<path d="M35.5555 10H4.44444C4.14975 10 3.86714 9.88294 3.65877 9.67456C3.45039 9.46619 3.33333 9.18357 3.33333 8.88889C3.33333 8.5942 3.45039 8.31159 3.65877 8.10322C3.86714 7.89484 4.14975 7.77778 4.44444 7.77778H35.5555C35.8502 7.77778 36.1328 7.89484 36.3412 8.10322C36.5496 8.31159 36.6667 8.5942 36.6667 8.88889C36.6667 9.18357 36.5496 9.46619 36.3412 9.67456C36.1328 9.88294 35.8502 10 35.5555 10Z" fill="white"/>
</svg>
